<?xml version="1.0" standalone="no"?>
<!DOCTYPE svg PUBLIC "-//W3C//DTD SVG 20010904//EN"
 "http://www.w3.org/TR/2001/REC-SVG-20010904/DTD/svg10.dtd">
<svg version="1.0" xmlns="http://www.w3.org/2000/svg"
 width="700.000000pt" height="700.000000pt" viewBox="0 0 700.000000 700.000000"
 preserveAspectRatio="xMidYMid meet">
<metadata>
Created for Shreyash Gupta's personal website
</metadata>
<g transform="translate(0.000000,700.000000) scale(0.100000,-0.100000)"
fill="#000000" stroke="none">
<path d="M3230 6993 c-932 -50 -1771 -396 -2435 -1005 -664 -609 -1068 -1412 -1175 -2333 -24 -208 -24 -602 0 -810 107 -921 511 -1724 1175 -2333 664 -609 1503 -955 2435 -1005 208 -11 602 -11 810 0 932 50 1771 396 2435 1005 664 609 1068 1412 1175 2333 24 208 24 602 0 810 -107 921 -511 1724 -1175 2333 -664 609 -1503 955 -2435 1005 -167 9 -643 9 -810 0z m680 -1628 c275 -57 493 -222 612 -465 61 -125 83 -218 83 -355 0 -137 -22 -230 -83 -355 -119 -243 -337 -408 -612 -465 -88 -18 -272 -18 -360 0 -275 57 -493 222 -612 465 -61 125 -83 218 -83 355 0 137 22 230 83 355 119 243 337 408 612 465 88 18 272 18 360 0z m-520 -2520 c369 -77 719 -77 1088 0 462 96 892 288 1262 562 l85 63 0 -622 c0 -685 -7 -748 -72 -648 -125 192 -358 402 -598 539 -539 308 -1176 308 -1715 0 -240 -137 -473 -347 -598 -539 -65 -100 -72 -37 -72 648 l0 622 85 -63 c370 -274 800 -466 1262 -562z"/>
</g>
</svg>
